<?xml version="1.0" standalone="no"?>
<!DOCTYPE svg PUBLIC "-//W3C//DTD SVG 20010904//EN"
 "http://www.w3.org/TR/2001/REC-SVG-20010904/DTD/svg10.dtd">
<svg version="1.0" xmlns="http://www.w3.org/2000/svg"
 width="700.000000pt" height="700.000000pt" viewBox="0 0 700.000000 700.000000"
 preserveAspectRatio="xMidYMid meet">
<metadata>
Created by potrace 1.14, written by Peter Selinger 2001-2017
</metadata>
<g transform="translate(0.000000,700.000000) scale(0.100000,-0.100000)"
fill="#000000" stroke="none">
<path d="M289 6990 c-107 -18 -202 -93 -253 -200 l-31 -65 0 -3225 0 -3225 28
-60 c36 -78 104 -146 181 -182 l61 -28 3225 0 3225 0 61 28 c77 36 145 104
181 182 l28 60 0 3225 0 3225 -28 61 c-36 77 -104 145 -182 181 l-60 28 -3195
1 c-1757 1 -3216 -2 -3241 -6z m3555 -1070 c628 -136 1121 -573 1320 -1170 69
-206 80 -287 80 -550 0 -207 -2 -247 -22 -340 -153 -706 -677 -1231 -1377
-1380 -128 -27 -423 -38 -558 -21 -756 99 -1346 647 -1509 1401 -20 92 -22
133 -22 340 0 207 2 248 22 340 159 737 723 1275 1461 1395 132 22 476 13 605
-15z m-2011 -4154 c445 -292 920 -459 1437 -506 127 -11 387 -12 523 -2 48 4
87 4 87 0 0 -16 -168 -140 -240 -177 -177 -91 -337 -126 -580 -125 -268 0
-461 45 -705 164 -263 127 -465 316 -574 536 -37 75 -76 184 -65 184 3 0 55
-33 117 -74z"/>
<path d="M3315 5054 c-79 -17 -199 -66 -283 -116 -72 -43 -227 -198 -270 -270
-100 -170 -137 -316 -129 -507 7 -151 22 -214 87 -346 86 -177 218 -309 395
-395 150 -73 202 -85 385 -85 183 0 235 12 385 85 114 55 210 130 291 228 62
75 144 233 171 332 13 49 18 102 18 220 0 183 -12 235 -85 385 -55 114 -130
210 -228 291 -73 61 -233 143 -327 169 -87 24 -319 29 -410 9z"/>
</g>
</svg>
